<mxfile host="Electron" agent="Mozilla/5.0 (X11; Linux x86_64) AppleWebKit/537.36 (KHTML, like Gecko) draw.io/26.0.4 Chrome/128.0.6613.186 Electron/32.2.5 Safari/537.36" version="26.0.4">
  <diagram id="prtHgNgQTEPvFCAcTncT" name="Page-1">
    <mxGraphModel dx="2723" dy="1931" grid="1" gridSize="10" guides="1" tooltips="1" connect="1" arrows="1" fold="1" page="1" pageScale="1" pageWidth="827" pageHeight="1169" math="0" shadow="0">
      <root>
        <mxCell id="0" />
        <mxCell id="1" parent="0" />
        <mxCell id="7wxo4pATJAo4YBiQtPDG-31" value="Beratende Ebene" style="rounded=0;whiteSpace=wrap;html=1;fillColor=#6d8764;strokeColor=#3A5431;fontColor=#ffffff;verticalAlign=top;align=left;fontStyle=1;fontSize=16;" vertex="1" parent="1">
          <mxGeometry x="160" y="400" width="650" height="110" as="geometry" />
        </mxCell>
        <mxCell id="7wxo4pATJAo4YBiQtPDG-18" value="Operative Ebene" style="rounded=0;whiteSpace=wrap;html=1;fillColor=#76608a;strokeColor=#432D57;fontColor=#ffffff;verticalAlign=top;align=left;fontStyle=1;fontSize=16;" vertex="1" parent="1">
          <mxGeometry x="160" y="290" width="650" height="110" as="geometry" />
        </mxCell>
        <mxCell id="7wxo4pATJAo4YBiQtPDG-17" value="&lt;font style=&quot;font-size: 16px;&quot;&gt;Taktische Ebene&lt;/font&gt;" style="rounded=0;whiteSpace=wrap;html=1;fillColor=#e3c800;strokeColor=#B09500;fontColor=#FFFFFF;verticalAlign=top;align=left;fontStyle=1" vertex="1" parent="1">
          <mxGeometry x="160" y="160" width="650" height="130" as="geometry" />
        </mxCell>
        <mxCell id="7wxo4pATJAo4YBiQtPDG-13" value="&lt;b&gt;&lt;font style=&quot;font-size: 16px; color: rgb(255, 255, 255);&quot;&gt;Strategische Ebene&lt;/font&gt;&lt;/b&gt;" style="rounded=0;whiteSpace=wrap;html=1;fillColor=#60a917;strokeColor=#2D7600;verticalAlign=top;align=left;fontColor=#ffffff;" vertex="1" parent="1">
          <mxGeometry x="160" y="30" width="650" height="130" as="geometry" />
        </mxCell>
        <mxCell id="7wxo4pATJAo4YBiQtPDG-3" value="" style="edgeStyle=orthogonalEdgeStyle;rounded=0;orthogonalLoop=1;jettySize=auto;html=1;" edge="1" parent="1" source="7wxo4pATJAo4YBiQtPDG-1" target="7wxo4pATJAo4YBiQtPDG-2">
          <mxGeometry relative="1" as="geometry" />
        </mxCell>
        <mxCell id="7wxo4pATJAo4YBiQtPDG-5" value="" style="edgeStyle=orthogonalEdgeStyle;rounded=0;orthogonalLoop=1;jettySize=auto;html=1;" edge="1" parent="1" source="7wxo4pATJAo4YBiQtPDG-1" target="7wxo4pATJAo4YBiQtPDG-4">
          <mxGeometry relative="1" as="geometry" />
        </mxCell>
        <mxCell id="7wxo4pATJAo4YBiQtPDG-1" value="Geschäftführer" style="rounded=1;whiteSpace=wrap;html=1;" vertex="1" parent="1">
          <mxGeometry x="394" y="79" width="120" height="60" as="geometry" />
        </mxCell>
        <mxCell id="7wxo4pATJAo4YBiQtPDG-7" value="" style="edgeStyle=orthogonalEdgeStyle;rounded=0;orthogonalLoop=1;jettySize=auto;html=1;" edge="1" parent="1" source="7wxo4pATJAo4YBiQtPDG-2" target="7wxo4pATJAo4YBiQtPDG-6">
          <mxGeometry relative="1" as="geometry">
            <Array as="points">
              <mxPoint x="324" y="280" />
              <mxPoint x="374" y="280" />
            </Array>
          </mxGeometry>
        </mxCell>
        <mxCell id="7wxo4pATJAo4YBiQtPDG-2" value="IT-Sicherheits-beauftragter&amp;nbsp;&lt;div&gt;(CISO)&lt;/div&gt;" style="rounded=1;whiteSpace=wrap;html=1;" vertex="1" parent="1">
          <mxGeometry x="264" y="201" width="120" height="60" as="geometry" />
        </mxCell>
        <mxCell id="7wxo4pATJAo4YBiQtPDG-21" style="edgeStyle=orthogonalEdgeStyle;rounded=0;orthogonalLoop=1;jettySize=auto;html=1;entryX=0.5;entryY=0;entryDx=0;entryDy=0;" edge="1" parent="1" source="7wxo4pATJAo4YBiQtPDG-4" target="7wxo4pATJAo4YBiQtPDG-6">
          <mxGeometry relative="1" as="geometry">
            <Array as="points">
              <mxPoint x="604" y="280" />
              <mxPoint x="374" y="280" />
            </Array>
          </mxGeometry>
        </mxCell>
        <mxCell id="7wxo4pATJAo4YBiQtPDG-22" style="edgeStyle=orthogonalEdgeStyle;rounded=0;orthogonalLoop=1;jettySize=auto;html=1;entryX=0.5;entryY=0;entryDx=0;entryDy=0;" edge="1" parent="1" source="7wxo4pATJAo4YBiQtPDG-4" target="7wxo4pATJAo4YBiQtPDG-19">
          <mxGeometry relative="1" as="geometry">
            <Array as="points">
              <mxPoint x="604" y="280" />
              <mxPoint x="534" y="280" />
            </Array>
          </mxGeometry>
        </mxCell>
        <mxCell id="7wxo4pATJAo4YBiQtPDG-23" style="edgeStyle=orthogonalEdgeStyle;rounded=0;orthogonalLoop=1;jettySize=auto;html=1;" edge="1" parent="1" source="7wxo4pATJAo4YBiQtPDG-4" target="7wxo4pATJAo4YBiQtPDG-20">
          <mxGeometry relative="1" as="geometry">
            <Array as="points">
              <mxPoint x="604" y="280" />
              <mxPoint x="684" y="280" />
            </Array>
          </mxGeometry>
        </mxCell>
        <mxCell id="7wxo4pATJAo4YBiQtPDG-4" value="Datenschutz-beauftragter" style="rounded=1;whiteSpace=wrap;html=1;" vertex="1" parent="1">
          <mxGeometry x="544" y="201" width="120" height="60" as="geometry" />
        </mxCell>
        <mxCell id="7wxo4pATJAo4YBiQtPDG-6" value="IT-Abteilunge" style="rounded=1;whiteSpace=wrap;html=1;" vertex="1" parent="1">
          <mxGeometry x="314" y="301" width="120" height="60" as="geometry" />
        </mxCell>
        <mxCell id="7wxo4pATJAo4YBiQtPDG-8" value="IT-Abteilungen /&lt;div&gt;IT-Teams&lt;/div&gt;" style="rounded=1;whiteSpace=wrap;html=1;" vertex="1" parent="1">
          <mxGeometry x="304" y="311" width="120" height="60" as="geometry" />
        </mxCell>
        <mxCell id="7wxo4pATJAo4YBiQtPDG-14" value="IT-Abteilunge" style="rounded=1;whiteSpace=wrap;html=1;" vertex="1" parent="1">
          <mxGeometry x="404" y="421" width="120" height="60" as="geometry" />
        </mxCell>
        <mxCell id="7wxo4pATJAo4YBiQtPDG-15" value="Fach-&lt;br&gt;Abteilungen /&lt;br&gt;Endnutzer" style="rounded=1;whiteSpace=wrap;html=1;" vertex="1" parent="1">
          <mxGeometry x="394" y="431" width="120" height="60" as="geometry" />
        </mxCell>
        <mxCell id="7wxo4pATJAo4YBiQtPDG-19" value="Security Operations Center (SOC)" style="rounded=1;whiteSpace=wrap;html=1;" vertex="1" parent="1">
          <mxGeometry x="474" y="311" width="120" height="60" as="geometry" />
        </mxCell>
        <mxCell id="7wxo4pATJAo4YBiQtPDG-20" value="Computer Emergency Response Team (CERT)" style="rounded=1;whiteSpace=wrap;html=1;" vertex="1" parent="1">
          <mxGeometry x="624" y="311" width="120" height="60" as="geometry" />
        </mxCell>
        <mxCell id="7wxo4pATJAo4YBiQtPDG-26" style="edgeStyle=orthogonalEdgeStyle;rounded=0;orthogonalLoop=1;jettySize=auto;html=1;exitX=0.431;exitY=0.023;exitDx=0;exitDy=0;exitPerimeter=0;" edge="1" parent="1" source="7wxo4pATJAo4YBiQtPDG-14" target="7wxo4pATJAo4YBiQtPDG-8">
          <mxGeometry relative="1" as="geometry">
            <Array as="points">
              <mxPoint x="456" y="390" />
              <mxPoint x="364" y="390" />
            </Array>
          </mxGeometry>
        </mxCell>
        <mxCell id="7wxo4pATJAo4YBiQtPDG-27" style="edgeStyle=orthogonalEdgeStyle;rounded=0;orthogonalLoop=1;jettySize=auto;html=1;exitX=0.433;exitY=0.03;exitDx=0;exitDy=0;exitPerimeter=0;" edge="1" parent="1" source="7wxo4pATJAo4YBiQtPDG-14" target="7wxo4pATJAo4YBiQtPDG-19">
          <mxGeometry relative="1" as="geometry">
            <Array as="points">
              <mxPoint x="456" y="390" />
              <mxPoint x="534" y="390" />
            </Array>
          </mxGeometry>
        </mxCell>
        <mxCell id="7wxo4pATJAo4YBiQtPDG-28" style="edgeStyle=orthogonalEdgeStyle;rounded=0;orthogonalLoop=1;jettySize=auto;html=1;exitX=0.433;exitY=0.022;exitDx=0;exitDy=0;exitPerimeter=0;" edge="1" parent="1" source="7wxo4pATJAo4YBiQtPDG-14" target="7wxo4pATJAo4YBiQtPDG-20">
          <mxGeometry relative="1" as="geometry">
            <Array as="points">
              <mxPoint x="456" y="390" />
              <mxPoint x="684" y="390" />
            </Array>
          </mxGeometry>
        </mxCell>
        <mxCell id="7wxo4pATJAo4YBiQtPDG-30" style="edgeStyle=orthogonalEdgeStyle;rounded=0;orthogonalLoop=1;jettySize=auto;html=1;entryX=0.5;entryY=1;entryDx=0;entryDy=0;" edge="1" parent="1" source="7wxo4pATJAo4YBiQtPDG-29" target="7wxo4pATJAo4YBiQtPDG-19">
          <mxGeometry relative="1" as="geometry">
            <Array as="points">
              <mxPoint x="634" y="390" />
              <mxPoint x="534" y="390" />
            </Array>
          </mxGeometry>
        </mxCell>
        <mxCell id="7wxo4pATJAo4YBiQtPDG-29" value="Betriebsrat" style="rounded=1;whiteSpace=wrap;html=1;" vertex="1" parent="1">
          <mxGeometry x="574" y="431" width="120" height="60" as="geometry" />
        </mxCell>
      </root>
    </mxGraphModel>
  </diagram>
</mxfile>
